<svg width="252" height="45" viewBox="0 0 252 45" fill="none" xmlns="http://www.w3.org/2000/svg">
<path d="M46.5026 17.4992C46.3394 17.5404 45.9858 17.6504 45.741 17.6779C46.2034 17.2242 46.4754 16.6742 46.4754 16.2204C46.2578 16.2892 45.8634 16.4404 45.5098 16.5229C46.217 15.9179 46.6114 15.2029 46.4346 14.2679C46.217 14.3779 45.9178 14.5567 45.605 14.6804C46.2306 13.7179 46.217 12.8654 45.9586 12.3704C45.6866 12.6317 45.3466 12.9342 44.993 13.1542C45.2242 12.0404 45.2106 11.3254 44.7482 10.8167C44.2722 11.7242 43.8641 12.3979 43.1977 13.1954C43.2521 12.4529 43.1705 11.5317 42.6945 11.0642C42.6945 11.0642 42.5585 12.0954 42.2049 12.4254C42.1233 11.4217 41.8105 10.8717 41.3617 10.3354C41.3617 10.3354 41.3345 11.3804 41.0489 12.0267C40.8041 11.1467 40.3689 10.4729 39.7977 9.82666C39.8385 11.7654 39.3081 15.4092 37.7713 17.8704C37.5945 19.3279 37.4313 21.5142 35.0921 22.8067C34.7521 22.5729 34.1673 22.2567 33.3241 22.3117C33.1064 21.2117 34.5209 20.2217 35.7449 19.4242C36.9825 18.6129 37.5129 17.9254 37.4993 16.8529C37.4721 15.6704 36.6833 15.1892 35.8673 15.1617C34.7113 15.1067 33.7729 16.1654 33.5553 16.6054C33.2152 16.7704 32.236 17.0729 31.828 17.1829C31.3792 17.3067 30.876 17.4854 30.5496 17.7604C30.74 17.8842 31.284 17.9254 31.488 17.8842C31.8824 17.8292 33.1336 17.5954 34.3169 17.4442C34.7521 17.6779 35.4457 18.0767 34.7113 18.5992C33.6913 19.2592 33.256 19.4242 31.828 20.1804C29.5704 21.3767 30.3048 24.3879 30.8488 24.6079C30.8488 25.6254 31.7464 27.4542 32.3584 28.1004C32.6304 29.3792 32.2632 31.2767 31.8824 32.0742C31.5696 31.3042 31.0256 29.5029 30.672 28.4579C31.0392 26.4779 30.4408 25.5979 30.0328 25.2679C29.6248 24.9242 28.972 25.0204 28.5368 25.7079C29.1896 25.6392 29.4072 26.4779 29.3936 27.3579C29.38 28.4029 29.108 29.2554 28.3872 29.2554C28.4416 30.1492 29.3936 30.4104 29.8696 29.9704C29.9512 30.1767 30.332 31.3454 30.6856 32.3904C30.9032 33.0092 31.1072 33.5867 31.2432 33.8892C31.3928 34.2192 32.4944 34.2742 32.6168 33.8892C32.7936 33.3804 32.9296 32.9954 33.2016 32.3904C33.4057 31.9367 33.7049 31.3592 34.1401 30.5067C34.4393 31.0292 34.8337 31.8404 35.0513 32.3904C35.1601 32.6517 35.2281 32.8579 35.2417 32.9542C35.3369 33.8067 35.2825 36.8454 35.0513 38.6604C32.5896 37.9867 31.8824 39.1967 32.1 40.1042C32.4536 39.7054 32.916 39.7604 33.2016 39.9667C33.1336 40.6267 33.3104 41.1079 33.9769 41.3142C34.6841 39.4167 37.2273 39.8429 37.4721 39.9942C37.4857 39.6229 37.8257 38.7154 36.5201 38.5229C36.5745 36.8867 36.7377 34.8792 36.7921 34.4667C36.8465 34.0542 36.9009 33.7929 36.7105 33.1329C36.6561 32.9404 36.5745 32.6929 36.5065 32.4042C36.3297 31.7442 36.1665 30.8779 36.1529 29.9429C36.3841 30.1767 36.9281 30.3554 37.2953 30.2729C37.5809 31.5104 38.0025 31.1529 38.2201 31.6754C38.3289 31.9367 38.3561 32.1979 38.3833 32.4179C38.4105 32.6379 38.4513 32.8167 38.5601 32.9817C39.4305 33.0092 40.1785 32.8029 40.7089 32.4179C40.8721 32.3079 41.0217 32.1704 41.1305 32.0329C40.9129 30.7129 40.5457 30.0667 39.8657 29.2692C39.6889 28.1967 39.1857 27.2067 38.5057 26.3267C39.3625 26.0379 40.2329 25.3367 40.6953 24.8417C41.1033 24.8142 41.5793 24.4704 41.6201 23.7829C41.8649 23.7554 42.0689 23.7417 42.2593 23.7004C42.2321 23.5079 42.1913 23.2329 42.1641 23.0679C42.4769 23.0679 42.7897 23.0542 43.0753 23.0267C42.9937 22.7792 42.8713 22.5179 42.7897 22.3254C43.1025 22.3254 43.4969 22.2979 43.8097 22.2842C43.6465 21.9679 43.5105 21.6792 43.4153 21.4042C43.7825 21.3629 44.3401 21.2804 44.8026 21.1704C44.653 21.0192 44.4898 20.8542 44.2313 20.6067C45.4282 20.2492 45.9586 19.3967 46.013 19.0254C45.8362 19.0254 45.469 19.1079 45.2514 19.0804C45.9858 18.6404 46.4346 18.0904 46.5026 17.4992Z" fill="white"/>
<path d="M22.1992 39.7877C15.4943 37.2577 14.6375 31.7027 14.6103 29.1727C14.6103 29.1727 14.5967 29.1727 14.5831 29.1727C14.5967 29.104 14.5967 29.049 14.6103 28.994C14.6103 28.444 14.6511 28.0727 14.6647 27.949C14.6511 27.5915 14.5967 27.3027 14.5287 27.0965C14.5151 27.0552 14.4879 27.014 14.4607 26.959V29.5715C14.4607 32.5002 15.5215 35.0302 17.6159 37.079C19.4519 38.8802 21.5192 39.719 22.104 39.9252L22.1992 39.9527L22.2944 39.9252C22.8792 39.7052 24.9464 38.8802 26.7824 37.079C28.8768 35.0302 29.9376 32.5002 29.9376 29.5715V29.0902C29.8832 29.1727 29.8288 29.2277 29.7744 29.2965C29.72 30.6165 29.4752 32.6515 28.6048 34.1915C27.5848 36.3502 25.9936 38.124 22.1992 39.7877Z" fill="white"/>
<path d="M38.2607 41.4792C37.9343 41.5755 37.5263 41.6442 36.9279 41.6442H36.1799C33.6095 41.5892 30.9711 40.8192 29.3526 39.1417C31.5831 36.8592 28.9582 34.9892 27.5438 36.9142C27.095 37.5192 26.7414 37.9455 26.4422 38.5367C26.1974 39.0042 26.3742 39.4855 26.9318 40.2142C27.231 40.613 27.9926 41.2317 28.6182 41.6442H15.7797C16.3917 41.2317 17.1533 40.613 17.4661 40.2142C18.0237 39.4855 18.2141 39.018 17.9557 38.5367C17.6429 37.9455 17.2893 37.5192 16.8541 36.9142C15.4397 34.9755 12.8149 36.8592 15.0453 39.1417C13.4269 40.8192 10.7885 41.5892 8.21805 41.6442H7.51085C6.91244 41.6442 6.50444 41.5892 6.17803 41.4792C5.64763 41.3555 5.52523 41.5755 5.81083 42.5105C6.00123 43.1155 6.16443 44.133 6.23243 44.8205H38.2063C38.2743 44.133 38.4375 43.1155 38.6279 42.4967C38.9135 41.5755 38.7911 41.3417 38.2607 41.4792ZM28.251 36.9967C28.6726 36.433 29.2846 36.5842 29.5294 37.0517C29.8014 37.5605 29.407 38.1792 28.8766 38.6742C28.1558 37.8767 28.0742 37.2305 28.251 36.9967ZM27.1902 39.6505C26.9318 39.2792 26.8366 39.073 26.9726 38.7155C27.1086 38.3717 27.3806 38.0692 27.6526 37.643C28.1014 39.403 30.7263 41.0805 32.6711 41.6442H29.5702C28.795 41.1905 27.775 40.4755 27.1902 39.6505ZM14.8549 37.0517C15.1133 36.5842 15.7253 36.433 16.1333 36.9967C16.3101 37.2442 16.2285 37.8767 15.5077 38.6742C14.9773 38.1792 14.5829 37.5605 14.8549 37.0517ZM16.7317 37.6292C17.0173 38.0555 17.2893 38.3717 17.4117 38.7017C17.5477 39.0592 17.4661 39.2792 17.2077 39.6367C16.6229 40.4617 15.6029 41.1767 14.8005 41.6167H11.7133C13.6581 41.0805 16.2829 39.3892 16.7317 37.6292ZM37.6487 44.3117H6.79004C6.65404 43.3217 6.46364 42.6755 6.30043 42.1392H38.1519C37.9751 42.6755 37.7847 43.3217 37.6487 44.3117Z" fill="white"/>
<path d="M31.2432 43.0601C31.2432 42.7851 31.2432 42.7301 31.2432 42.6751C31.2432 42.6063 31.2568 42.5788 31.3112 42.5651C31.3384 42.5651 31.3656 42.5651 31.3792 42.5651C31.4064 42.5651 31.4064 42.5651 31.4064 42.5513C31.4064 42.5376 31.3928 42.5376 31.3656 42.5376C31.2976 42.5376 31.1616 42.5376 31.1208 42.5376C31.0664 42.5376 30.9576 42.5376 30.876 42.5376C30.8488 42.5376 30.8352 42.5376 30.8352 42.5513C30.8352 42.5651 30.8488 42.5651 30.8624 42.5651C30.8896 42.5651 30.9032 42.5651 30.9304 42.5651C30.9848 42.5788 30.9984 42.6063 31.012 42.6751C31.012 42.7301 31.012 42.7851 31.012 43.0601V43.3901C31.012 43.5551 31.012 43.7063 30.9984 43.7888C30.9848 43.8438 30.9848 43.8851 30.944 43.8988C30.9304 43.8988 30.9032 43.8988 30.876 43.8988C30.8488 43.8988 30.8488 43.9126 30.8488 43.9126C30.8488 43.9263 30.8624 43.9263 30.8896 43.9263C30.9576 43.9263 31.08 43.9263 31.1208 43.9263C31.2704 43.9263 31.3928 43.9401 31.6512 43.9401C31.7464 43.9401 31.76 43.9263 31.76 43.8851C31.7736 43.8301 31.7872 43.6926 31.7872 43.6651C31.7872 43.6376 31.7872 43.6376 31.7736 43.6376C31.76 43.6376 31.76 43.6513 31.76 43.6651C31.76 43.7063 31.7328 43.7476 31.7056 43.7751C31.6648 43.8163 31.5832 43.8301 31.488 43.8301C31.352 43.8301 31.2976 43.8163 31.2704 43.7888C31.2296 43.7476 31.2296 43.6238 31.2296 43.3901V43.0601H31.2432Z" fill="white"/>
<path d="M33.6363 43.9539C33.7315 43.9539 33.8402 43.9402 33.9217 43.8852C34.0576 43.8027 34.0983 43.6652 34.0983 43.5689C34.0983 43.3902 34.0168 43.2664 33.7994 43.1014L33.7451 43.0602C33.5956 42.9502 33.5548 42.8814 33.5548 42.7989C33.5548 42.6889 33.6363 42.6064 33.7722 42.6064C33.8945 42.6064 33.9489 42.6614 33.9761 42.7027C34.0168 42.7439 34.0304 42.8127 34.0304 42.8264C34.0304 42.8539 34.044 42.8539 34.044 42.8539C34.0576 42.8539 34.0576 42.8402 34.0576 42.7989C34.0576 42.6614 34.0712 42.6064 34.0712 42.5789C34.0712 42.5652 34.0576 42.5652 34.044 42.5514C34.0032 42.5377 33.9217 42.5239 33.7994 42.5239C33.5412 42.5239 33.3782 42.6752 33.3782 42.8677C33.3782 43.0189 33.4461 43.1427 33.6499 43.3077L33.7315 43.3764C33.8809 43.5002 33.9081 43.5827 33.9081 43.6789C33.9081 43.7752 33.8266 43.8852 33.6635 43.8852C33.5548 43.8852 33.4461 43.8302 33.4053 43.6927C33.3918 43.6652 33.3918 43.6239 33.3918 43.5964C33.3918 43.5827 33.3918 43.5552 33.3782 43.5552C33.3646 43.5552 33.3646 43.5827 33.351 43.6102C33.351 43.6377 33.3374 43.7477 33.3374 43.8439C33.3374 43.8852 33.3374 43.8989 33.3782 43.9127C33.4461 43.9402 33.5276 43.9539 33.6363 43.9539Z" fill="white"/>
<path d="M32.3718 43.3902C32.3718 43.5689 32.3718 43.7202 32.3582 43.8027C32.3582 43.8577 32.3446 43.8852 32.3039 43.8989C32.2903 43.8989 32.2631 43.8989 32.2359 43.8989C32.2087 43.8989 32.2087 43.9127 32.2087 43.9127C32.2087 43.9264 32.2223 43.9264 32.2495 43.9264C32.331 43.9264 32.4397 43.9264 32.4805 43.9264C32.5349 43.9264 32.6436 43.9264 32.7659 43.9264C32.7794 43.9264 32.8066 43.9264 32.8066 43.9127C32.8066 43.8989 32.793 43.8989 32.7794 43.8989C32.7523 43.8989 32.7115 43.8989 32.6843 43.8989C32.63 43.8852 32.6164 43.8577 32.6164 43.8027C32.6028 43.7202 32.6028 43.5827 32.6028 43.3902V43.0602C32.6028 42.7852 32.6028 42.7302 32.6028 42.6752C32.6028 42.6064 32.6164 42.5789 32.6707 42.5652C32.6979 42.5652 32.6979 42.5652 32.7251 42.5652C32.7523 42.5652 32.7523 42.5652 32.7523 42.5377C32.7523 42.5239 32.7387 42.5239 32.7115 42.5239C32.6436 42.5239 32.5349 42.5239 32.4941 42.5239C32.4397 42.5239 32.331 42.5239 32.2495 42.5239C32.2223 42.5239 32.2087 42.5239 32.2087 42.5377C32.2087 42.5514 32.2223 42.5652 32.2359 42.5652C32.2631 42.5652 32.2903 42.5652 32.3039 42.5652C32.3446 42.5789 32.3582 42.6064 32.3718 42.6752C32.3718 42.7302 32.3718 42.7852 32.3718 43.0602V43.3902Z" fill="white"/>
<path d="M27.6392 43.3902C27.6392 43.5552 27.6392 43.7064 27.6256 43.7889C27.6256 43.8439 27.612 43.8852 27.5712 43.8852C27.5576 43.8852 27.5304 43.8852 27.5032 43.8852C27.4896 43.8852 27.476 43.8852 27.476 43.8989C27.476 43.9127 27.4896 43.9127 27.5168 43.9127C27.5848 43.9127 27.7072 43.9127 27.748 43.9127C27.8432 43.9127 28.0064 43.9264 28.1424 43.9264C28.4824 43.9264 28.6728 43.8027 28.7544 43.7064C28.8632 43.5964 28.9584 43.4177 28.9584 43.1977C28.9584 42.9777 28.8768 42.8264 28.7816 42.7302C28.5776 42.5239 28.2784 42.5239 28.0472 42.5239C27.9384 42.5239 27.816 42.5239 27.7616 42.5239C27.7072 42.5239 27.5984 42.5239 27.5032 42.5239C27.476 42.5239 27.4624 42.5239 27.4624 42.5377C27.4624 42.5514 27.476 42.5514 27.4896 42.5514C27.5168 42.5514 27.544 42.5514 27.5576 42.5514C27.612 42.5652 27.6256 42.5927 27.6392 42.6614C27.6392 42.7164 27.6392 42.7714 27.6392 43.0464V43.3902ZM27.8704 43.0327V42.6614C27.8704 42.6477 27.884 42.6339 27.8976 42.6202C27.9112 42.6202 27.9792 42.6064 28.02 42.6064C28.1696 42.6064 28.3736 42.6339 28.5368 42.7989C28.6184 42.8814 28.7136 43.0189 28.7136 43.2527C28.7136 43.4452 28.6728 43.6102 28.564 43.7202C28.4552 43.8164 28.3328 43.8577 28.1424 43.8577C27.9928 43.8577 27.9248 43.8164 27.8976 43.7889C27.884 43.7614 27.884 43.6927 27.8704 43.6514C27.8704 43.6102 27.8704 43.4727 27.8704 43.2802V43.0327Z" fill="white"/>
<path d="M26.5373 43.3902C26.5373 43.5689 26.5373 43.7202 26.5237 43.8027C26.5237 43.8577 26.5102 43.8852 26.4694 43.8989C26.4558 43.8989 26.4286 43.8989 26.4014 43.8989C26.3743 43.8989 26.3743 43.9127 26.3743 43.9127C26.3743 43.9264 26.3879 43.9264 26.415 43.9264C26.483 43.9264 26.6053 43.9264 26.646 43.9264C26.7004 43.9264 26.8091 43.9264 26.9314 43.9264C26.945 43.9264 26.9586 43.9264 26.9586 43.9127C26.9586 43.8989 26.945 43.8989 26.9314 43.8989C26.9042 43.8989 26.8634 43.8989 26.8363 43.8989C26.7819 43.8852 26.7683 43.8577 26.7683 43.8027C26.7683 43.7202 26.7683 43.5827 26.7683 43.3902V43.0602C26.7683 42.7852 26.7683 42.7302 26.7683 42.6752C26.7683 42.6064 26.7819 42.5789 26.8363 42.5652C26.8499 42.5652 26.877 42.5652 26.8906 42.5652C26.9042 42.5652 26.9178 42.5652 26.9178 42.5377C26.9178 42.5239 26.9042 42.5239 26.877 42.5239C26.8091 42.5239 26.7004 42.5239 26.6596 42.5239C26.6053 42.5239 26.4966 42.5239 26.4286 42.5239C26.4014 42.5239 26.3879 42.5239 26.3879 42.5377C26.3879 42.5514 26.4014 42.5652 26.415 42.5652C26.4286 42.5652 26.4558 42.5652 26.483 42.5652C26.5237 42.5789 26.5373 42.6064 26.5509 42.6752C26.5509 42.7302 26.5509 42.7852 26.5509 43.0602V43.3902H26.5373Z" fill="white"/>
<path d="M25.368 43.2389C25.368 43.2252 25.368 43.2252 25.3816 43.2252C25.4088 43.2252 25.5992 43.2252 25.6536 43.2389C25.708 43.2389 25.7352 43.2802 25.7488 43.3077C25.7488 43.3352 25.7624 43.3489 25.7624 43.3627C25.7624 43.3764 25.7624 43.3902 25.776 43.3902C25.7896 43.3902 25.7896 43.3764 25.7896 43.3489C25.7896 43.3352 25.7896 43.2527 25.8032 43.2114C25.8032 43.1564 25.8168 43.1152 25.8168 43.1014C25.8168 43.0877 25.8168 43.0877 25.8032 43.0877C25.7896 43.0877 25.7896 43.1014 25.776 43.1014C25.7624 43.1289 25.7352 43.1289 25.6944 43.1289C25.6672 43.1289 25.64 43.1289 25.6128 43.1289H25.3816C25.368 43.1289 25.368 43.1289 25.368 43.1152V42.6614C25.368 42.6477 25.3816 42.6339 25.3816 42.6339L25.6672 42.6477C25.7352 42.6477 25.776 42.6752 25.7896 42.7027C25.8032 42.7302 25.8032 42.7577 25.8032 42.7714C25.8032 42.7989 25.8032 42.7989 25.8168 42.7989C25.8304 42.7989 25.8304 42.7852 25.8304 42.7714C25.8304 42.7439 25.8304 42.6339 25.844 42.6202C25.8576 42.5789 25.8576 42.5514 25.8576 42.5377C25.8576 42.5239 25.8576 42.5239 25.844 42.5239C25.8304 42.5239 25.8304 42.5377 25.8168 42.5377C25.8032 42.5377 25.776 42.5377 25.7352 42.5377H25.2592C25.2048 42.5377 25.096 42.5377 25.0008 42.5377C24.9736 42.5377 24.96 42.5377 24.96 42.5514C24.96 42.5652 24.9736 42.5652 24.9872 42.5652C25.0144 42.5652 25.0416 42.5652 25.0552 42.5652C25.1096 42.5789 25.1232 42.6064 25.1368 42.6752C25.1368 42.7302 25.1368 42.7852 25.1368 43.0602V43.3902C25.1368 43.5689 25.1368 43.7064 25.1232 43.7889C25.1096 43.8439 25.1096 43.8852 25.0688 43.8852C25.0552 43.8852 25.028 43.8852 25.0008 43.8852C24.9736 43.8852 24.9736 43.8989 24.9736 43.8989C24.9736 43.9127 24.9872 43.9127 25.0144 43.9127C25.0824 43.9127 25.1912 43.9127 25.2456 43.9127C25.3 43.9127 25.4088 43.9127 25.5176 43.9127C25.5448 43.9127 25.5584 43.9127 25.5584 43.8989C25.5584 43.8852 25.5448 43.8852 25.5312 43.8852C25.504 43.8852 25.4632 43.8852 25.436 43.8852C25.3816 43.8714 25.368 43.8302 25.368 43.7889C25.3544 43.7064 25.3544 43.5689 25.3544 43.3902V43.2389H25.368Z" fill="white"/>
<path d="M13.7807 43.3902C13.7807 43.5552 13.7807 43.7064 13.7671 43.7889C13.7671 43.8439 13.7535 43.8852 13.7127 43.8852C13.6991 43.8852 13.6719 43.8852 13.6447 43.8852C13.6175 43.8852 13.6175 43.8852 13.6175 43.8989C13.6175 43.9127 13.6311 43.9127 13.6583 43.9127C13.7263 43.9127 13.8487 43.9127 13.8895 43.9127C13.9847 43.9127 14.1479 43.9264 14.2839 43.9264C14.6239 43.9264 14.8143 43.8027 14.8959 43.7064C15.0047 43.5964 15.0999 43.4177 15.0999 43.1977C15.0999 42.9777 15.0183 42.8264 14.9231 42.7302C14.7191 42.5239 14.4199 42.5239 14.1887 42.5239C14.0799 42.5239 13.9575 42.5239 13.9031 42.5239C13.8487 42.5239 13.7399 42.5239 13.6311 42.5239C13.6039 42.5239 13.5903 42.5239 13.5903 42.5377C13.5903 42.5514 13.6039 42.5514 13.6175 42.5514C13.6447 42.5514 13.6719 42.5514 13.6991 42.5514C13.7535 42.5652 13.7671 42.5927 13.7807 42.6614C13.7807 42.7164 13.7807 42.7714 13.7807 43.0464V43.3902ZM14.0119 43.0327C14.0119 42.8952 14.0119 42.7302 14.0119 42.6614C14.0119 42.6477 14.0255 42.6339 14.0391 42.6202C14.0527 42.6202 14.1207 42.6064 14.1615 42.6064C14.3111 42.6064 14.5151 42.6339 14.6783 42.7989C14.7599 42.8814 14.8551 43.0189 14.8551 43.2527C14.8551 43.4452 14.8143 43.6102 14.7055 43.7202C14.5967 43.8164 14.4743 43.8577 14.2839 43.8577C14.1343 43.8577 14.0663 43.8164 14.0391 43.7889C14.0255 43.7614 14.0255 43.6927 14.0255 43.6514C14.0255 43.6102 14.0255 43.4727 14.0255 43.2802V43.0327H14.0119Z" fill="white"/>
<path d="M11.8766 43.3352C11.8766 43.5964 11.9446 43.7339 12.0398 43.8302C12.1758 43.9539 12.3526 43.9539 12.4478 43.9539C12.5702 43.9539 12.7062 43.9402 12.8286 43.8164C12.9782 43.6927 13.0054 43.4727 13.0054 43.2527V43.0602C13.0054 42.7852 13.0054 42.7302 13.0054 42.6752C13.0054 42.6064 13.019 42.5789 13.0734 42.5652C13.1006 42.5652 13.1142 42.5652 13.1278 42.5652C13.155 42.5652 13.155 42.5652 13.155 42.5514C13.155 42.5377 13.1414 42.5377 13.1142 42.5377C13.0462 42.5377 12.9238 42.5377 12.9102 42.5377C12.9102 42.5377 12.8014 42.5377 12.7062 42.5377C12.679 42.5377 12.6654 42.5377 12.6654 42.5514C12.6654 42.5652 12.679 42.5652 12.6926 42.5652C12.7062 42.5652 12.747 42.5652 12.7606 42.5652C12.815 42.5789 12.8286 42.6064 12.8422 42.6752C12.8422 42.7302 12.8422 42.7852 12.8422 43.0602V43.2939C12.8422 43.4864 12.8422 43.6514 12.7334 43.7477C12.6518 43.8164 12.5566 43.8439 12.475 43.8439C12.407 43.8439 12.3254 43.8302 12.2438 43.7614C12.1486 43.6789 12.1078 43.5689 12.1078 43.3077V43.0464C12.1078 42.7714 12.1078 42.7164 12.1078 42.6614C12.1078 42.5927 12.135 42.5652 12.1758 42.5514C12.203 42.5514 12.203 42.5514 12.2302 42.5514C12.2438 42.5514 12.2574 42.5514 12.2574 42.5377C12.2574 42.5239 12.2438 42.5239 12.2166 42.5239C12.1486 42.5239 12.0398 42.5239 11.9854 42.5239C11.931 42.5239 11.8086 42.5239 11.7134 42.5239C11.6862 42.5239 11.6726 42.5239 11.6726 42.5377C11.6726 42.5514 11.6862 42.5514 11.6998 42.5514C11.727 42.5514 11.7542 42.5514 11.7678 42.5514C11.8358 42.5652 11.8494 42.5927 11.8494 42.6614C11.8494 42.7164 11.8494 42.7714 11.8494 43.0464V43.3352H11.8766Z" fill="white"/>
<path d="M29.5839 43.3903C29.5839 43.5553 29.5839 43.7065 29.5703 43.789C29.5567 43.844 29.5567 43.8853 29.5159 43.8853C29.5023 43.8853 29.4751 43.8853 29.4479 43.8853C29.4207 43.8853 29.4207 43.899 29.4207 43.899C29.4207 43.9128 29.4343 43.9128 29.4615 43.9128C29.5295 43.9128 29.6519 43.9128 29.6927 43.9128C29.8015 43.9128 29.9239 43.9265 30.1959 43.9265C30.2639 43.9265 30.2775 43.9265 30.2911 43.8715C30.3047 43.8303 30.3183 43.7065 30.3183 43.6653C30.3183 43.6515 30.3183 43.624 30.3047 43.624C30.2911 43.624 30.2911 43.6378 30.2911 43.6515C30.2775 43.7203 30.2503 43.7615 30.2095 43.789C30.1687 43.8165 30.0871 43.8165 30.0327 43.8165C29.8423 43.8165 29.8151 43.789 29.8151 43.6653C29.8151 43.6103 29.8151 43.4453 29.8151 43.3765V43.2253C29.8151 43.2115 29.8151 43.2115 29.8287 43.2115C29.8695 43.2115 30.0463 43.2115 30.0871 43.2115C30.1551 43.2115 30.1823 43.239 30.1959 43.2803C30.1959 43.3078 30.1959 43.3353 30.2095 43.349C30.2095 43.3628 30.2095 43.3628 30.2231 43.3628C30.2367 43.3628 30.2367 43.349 30.2367 43.3353C30.2367 43.3215 30.2367 43.2528 30.2503 43.2115C30.2503 43.1153 30.2639 43.0878 30.2639 43.074C30.2639 43.0603 30.2503 43.0603 30.2503 43.0603C30.2367 43.0603 30.2367 43.074 30.2231 43.0878C30.2095 43.1015 30.1823 43.1153 30.1415 43.1153C30.1007 43.1153 29.8831 43.1153 29.8559 43.1153C29.8423 43.1153 29.8423 43.1153 29.8423 43.1015V42.634C29.8423 42.6203 29.8423 42.6203 29.8559 42.6203C29.8967 42.6203 30.0871 42.6203 30.1143 42.634C30.2095 42.6478 30.2231 42.6615 30.2367 42.7028C30.2503 42.7303 30.2503 42.7578 30.2503 42.7715C30.2503 42.7853 30.2503 42.799 30.2639 42.799C30.2775 42.799 30.2775 42.7853 30.2775 42.7715C30.2775 42.744 30.2911 42.6615 30.2911 42.6478C30.2911 42.5653 30.3047 42.5378 30.3047 42.524C30.3047 42.5103 30.3047 42.5103 30.2911 42.5103C30.2775 42.5103 30.2775 42.524 30.2639 42.524C30.2503 42.524 30.2231 42.5378 30.1823 42.5378H29.7199C29.6655 42.5378 29.5567 42.5378 29.4615 42.5378C29.4343 42.5378 29.4207 42.5378 29.4207 42.5515C29.4207 42.5653 29.4343 42.5653 29.4479 42.5653C29.4751 42.5653 29.5023 42.5653 29.5159 42.5653C29.5839 42.579 29.5975 42.6065 29.5975 42.6753C29.5975 42.7303 29.5975 42.7853 29.5975 43.0603V43.3903H29.5839Z" fill="white"/>
<path d="M22.1854 43.3903C22.1854 43.5553 22.1854 43.7065 22.1718 43.789C22.1718 43.844 22.1582 43.8853 22.1174 43.8853C22.1038 43.8853 22.0766 43.8853 22.0494 43.8853C22.0222 43.8853 22.0222 43.899 22.0222 43.899C22.0222 43.9128 22.0358 43.9128 22.063 43.9128C22.1446 43.9128 22.2534 43.9128 22.2942 43.9128C22.3486 43.9128 22.4574 43.9128 22.5798 43.9128C22.5934 43.9128 22.607 43.9128 22.607 43.899C22.607 43.8853 22.5934 43.8853 22.5798 43.8853C22.5526 43.8853 22.5118 43.8853 22.4846 43.8853C22.4302 43.8715 22.4166 43.8303 22.4166 43.789C22.403 43.7065 22.403 43.5553 22.403 43.3903V42.634H22.6342C22.7974 42.634 22.8518 42.689 22.8518 42.744V42.7578C22.8518 42.7853 22.8654 42.799 22.879 42.799C22.8926 42.799 22.8926 42.7853 22.8926 42.7715C22.8926 42.7165 22.8926 42.5928 22.8926 42.5653C22.8926 42.5378 22.8926 42.524 22.879 42.524C22.8654 42.524 22.8246 42.5378 22.7022 42.5378H21.9814C21.927 42.5378 21.8454 42.5378 21.8046 42.5378C21.7638 42.5378 21.7366 42.5103 21.723 42.5103C21.7094 42.5103 21.7094 42.524 21.6958 42.5515C21.6958 42.5653 21.655 42.7303 21.655 42.7578C21.655 42.7853 21.655 42.7853 21.6686 42.7853C21.6822 42.7853 21.6822 42.7715 21.6822 42.7578C21.6822 42.744 21.6958 42.7165 21.7094 42.689C21.7366 42.6478 21.7774 42.634 21.8862 42.634H22.1582V43.3903H22.1854Z" fill="white"/>
<path d="M18.0784 42.7165C18.1328 42.634 18.1736 42.579 18.2144 42.5653C18.2416 42.5653 18.2688 42.5515 18.2824 42.5515C18.296 42.5515 18.3096 42.5378 18.3096 42.5378C18.3096 42.524 18.296 42.524 18.2824 42.524C18.2144 42.524 18.1464 42.524 18.1056 42.524C18.0784 42.524 17.9968 42.524 17.9288 42.524C17.9016 42.524 17.888 42.524 17.888 42.5378C17.888 42.5515 17.9016 42.5515 17.9152 42.5515C17.9288 42.5515 17.956 42.5515 17.9696 42.5515C17.9832 42.5515 17.9968 42.5653 17.9968 42.579C17.9968 42.5928 17.9968 42.6203 17.9832 42.6478C17.956 42.7028 17.7928 42.9503 17.7384 43.0328C17.6704 42.909 17.5888 42.7715 17.5072 42.6203C17.4936 42.6065 17.4936 42.579 17.4936 42.5653C17.4936 42.5515 17.4936 42.5378 17.5208 42.5378C17.5344 42.5378 17.5616 42.5378 17.5752 42.5378C17.5888 42.5378 17.6024 42.5378 17.6024 42.524C17.6024 42.5103 17.5888 42.5103 17.5616 42.5103C17.4936 42.5103 17.3848 42.5103 17.3712 42.5103C17.2896 42.5103 17.14 42.5103 17.0992 42.5103C17.072 42.5103 17.0584 42.5103 17.0584 42.524C17.0584 42.5378 17.0584 42.5378 17.072 42.5378C17.0856 42.5378 17.1264 42.5378 17.1536 42.5515C17.2216 42.5653 17.2624 42.6203 17.3032 42.689L17.616 43.2115L17.2624 43.7203C17.1944 43.8165 17.1672 43.844 17.1128 43.8578C17.0856 43.8715 17.0584 43.8715 17.0448 43.8715C17.0312 43.8715 17.0176 43.8853 17.0176 43.8853C17.0176 43.899 17.0312 43.899 17.0448 43.899H17.072C17.0992 43.899 17.1944 43.899 17.2216 43.899C17.2624 43.899 17.3848 43.899 17.3984 43.899H17.4256C17.4528 43.899 17.4664 43.899 17.4664 43.8853C17.4664 43.8715 17.4528 43.8715 17.4392 43.8715C17.4256 43.8715 17.412 43.8715 17.3984 43.8715C17.3848 43.8715 17.3576 43.8578 17.3576 43.844C17.3576 43.8165 17.3712 43.8028 17.3848 43.7615L17.6568 43.3215C17.7384 43.459 17.8472 43.6378 17.9424 43.8165C17.956 43.844 17.9424 43.8578 17.9424 43.8578C17.9288 43.8578 17.9152 43.8715 17.9152 43.8715C17.9152 43.8853 17.9288 43.899 17.9832 43.899C18.1192 43.899 18.2688 43.899 18.3096 43.899H18.364C18.3912 43.899 18.4048 43.899 18.4048 43.8853C18.4048 43.8715 18.3912 43.8715 18.3776 43.8715C18.364 43.8715 18.3368 43.8715 18.3096 43.8578C18.2552 43.844 18.228 43.8165 18.2008 43.7753C18.16 43.7203 17.8608 43.2115 17.8064 43.129L18.0784 42.7165Z" fill="white"/>
<path d="M21.0704 43.6103C21.084 43.6103 21.084 43.6103 21.084 43.6241L21.1656 43.8578C21.1792 43.8853 21.1656 43.8991 21.152 43.8991C21.1384 43.8991 21.1248 43.8991 21.1248 43.9128C21.1248 43.9266 21.152 43.9266 21.1792 43.9266C21.3288 43.9266 21.4512 43.9266 21.5192 43.9266C21.5873 43.9266 21.6009 43.9266 21.6009 43.9128C21.6009 43.8991 21.5873 43.8991 21.5737 43.8991C21.5464 43.8991 21.5193 43.8991 21.4921 43.8991C21.4512 43.8853 21.3968 43.8716 21.3288 43.6928C21.2064 43.4178 20.9208 42.6616 20.88 42.5516C20.8664 42.5103 20.8528 42.4966 20.8256 42.4966C20.812 42.4966 20.7984 42.5241 20.7712 42.5791L20.3088 43.7341C20.268 43.8303 20.2408 43.8853 20.1592 43.8991C20.1456 43.8991 20.1184 43.8991 20.1048 43.8991C20.0912 43.8991 20.0776 43.8991 20.0776 43.9128C20.0776 43.9266 20.0912 43.9266 20.1184 43.9266C20.2136 43.9266 20.3088 43.9266 20.336 43.9266C20.3904 43.9266 20.472 43.9266 20.5264 43.9266C20.5536 43.9266 20.5536 43.9266 20.5536 43.9128C20.5536 43.8991 20.5536 43.8991 20.5264 43.8991H20.4992C20.4448 43.8991 20.4312 43.8716 20.4312 43.8441C20.4312 43.8303 20.4448 43.7753 20.4584 43.7341L20.4992 43.6378C20.4992 43.6241 20.5128 43.6241 20.5128 43.6241H21.0704V43.6103ZM20.5808 43.5141C20.5672 43.5141 20.5672 43.5141 20.5672 43.5003L20.7984 42.8816C20.7984 42.8816 20.7984 42.8678 20.812 42.8678C20.812 42.8678 20.812 42.8816 20.8256 42.8816L21.0568 43.5003C21.0568 43.5003 21.0568 43.5141 21.0432 43.5141H20.5808Z" fill="white"/>
<path d="M16.2968 43.6103C16.3104 43.6103 16.3104 43.6103 16.3104 43.6241L16.392 43.8578C16.4056 43.8853 16.392 43.8991 16.3784 43.8991C16.3648 43.8991 16.3512 43.8991 16.3512 43.9128C16.3512 43.9266 16.3784 43.9266 16.4056 43.9266C16.5552 43.9266 16.6912 43.9266 16.7456 43.9266C16.8136 43.9266 16.8272 43.9266 16.8272 43.9128C16.8272 43.8991 16.8136 43.8991 16.8 43.8991C16.7728 43.8991 16.7456 43.8991 16.7184 43.8991C16.6776 43.8853 16.6232 43.8716 16.5552 43.6928C16.4328 43.4178 16.1472 42.6616 16.0928 42.5516C16.0792 42.5103 16.0656 42.4966 16.052 42.4966C16.0384 42.4966 16.0248 42.5241 15.9976 42.5791L15.5352 43.7341C15.4944 43.8303 15.4672 43.8853 15.3856 43.8991C15.372 43.8991 15.3448 43.8991 15.3312 43.8991C15.3176 43.8991 15.304 43.8991 15.304 43.9128C15.304 43.9266 15.3176 43.9266 15.3448 43.9266C15.44 43.9266 15.5352 43.9266 15.5624 43.9266C15.6168 43.9266 15.6984 43.9266 15.7528 43.9266C15.78 43.9266 15.78 43.9266 15.78 43.9128C15.78 43.8991 15.78 43.8991 15.7528 43.8991H15.7256C15.6712 43.8991 15.6576 43.8716 15.6576 43.8441C15.6576 43.8303 15.6712 43.7753 15.6848 43.7341L15.7256 43.6378C15.7256 43.6241 15.7392 43.6241 15.7392 43.6241H16.2968V43.6103ZM15.7936 43.5141C15.7936 43.5141 15.78 43.5141 15.7936 43.5003L16.0248 42.8816L16.0384 42.8678L16.052 42.8816L16.2832 43.5003C16.2832 43.5141 16.2832 43.5141 16.2696 43.5141H15.7936Z" fill="white"/>
<path d="M10.9654 43.6104C10.9654 43.6104 10.979 43.6104 10.979 43.6242L11.0606 43.8579C11.0742 43.8854 11.0606 43.8992 11.047 43.8992C11.0334 43.8992 11.0198 43.8992 11.0198 43.9129C11.0198 43.9267 11.047 43.9267 11.0742 43.9267C11.2238 43.9267 11.3598 43.9267 11.4142 43.9267C11.4822 43.9267 11.4958 43.9267 11.4958 43.9129C11.4958 43.8992 11.4822 43.8992 11.4686 43.8992C11.4414 43.8992 11.4142 43.8992 11.387 43.8992C11.3462 43.8854 11.2918 43.8717 11.2238 43.6929C11.1014 43.4179 10.8158 42.6617 10.775 42.5517C10.775 42.5104 10.775 42.4829 10.7478 42.4829C10.7342 42.4829 10.7206 42.5104 10.6934 42.5654L10.2446 43.7204C10.2038 43.8167 10.1766 43.8717 10.095 43.8854C10.0814 43.8854 10.0542 43.8854 10.0406 43.8854C10.027 43.8854 10.0134 43.8854 10.0134 43.8992C10.0134 43.9129 10.027 43.9129 10.0542 43.9129C10.1494 43.9129 10.2446 43.9129 10.2718 43.9129C10.3262 43.9129 10.4078 43.9129 10.4622 43.9129C10.4758 43.9129 10.4894 43.9129 10.4894 43.8992C10.4894 43.8854 10.4894 43.8854 10.4622 43.8854H10.4214C10.367 43.8854 10.3534 43.8579 10.3534 43.8304C10.3534 43.8167 10.367 43.7617 10.3806 43.7204L10.4214 43.6242C10.4214 43.6104 10.435 43.6104 10.435 43.6104H10.9654ZM10.4758 43.5142C10.4622 43.5142 10.4622 43.5142 10.4622 43.5004L10.6934 42.8817L10.707 42.8679C10.707 42.8679 10.707 42.8817 10.7206 42.8817L10.9518 43.5004C10.9518 43.5142 10.9518 43.5142 10.9382 43.5142H10.4758Z" fill="white"/>
<path d="M28.1288 29.2413L28.1152 28.9663H28.3872C28.7544 28.9663 28.9448 28.6088 29.04 28.1826C27.5984 28.1688 22.4575 28.1963 22.4575 28.1963V33.5588C22.8927 33.2426 23.3007 32.9676 23.8447 32.8026V31.8676V31.6201H24.0895H24.3887C24.4159 30.3276 24.7287 29.3788 25.3271 28.7601L25.5039 28.5813L25.6807 28.7601C26.2792 29.3788 26.5784 30.3138 26.6192 31.6201H26.932H27.1768V31.8676V32.8713C27.7616 33.1188 28.156 33.4901 28.4688 33.8888C28.9584 32.8851 29.312 31.7301 29.4344 30.3963C29.4072 30.3963 29.38 30.4101 29.3528 30.4101C28.768 30.4101 28.1696 30.0113 28.1288 29.2413Z" fill="white"/>
<path d="M25.4767 33.064C23.9127 33.064 23.3143 33.504 22.4575 34.164V39.2927C22.4575 39.2927 26.1568 38.0002 28.1832 34.384C27.7072 33.6965 27.0272 33.064 25.4767 33.064ZM26.7552 35.1402L26.2928 34.604L25.5039 35.319L25.8304 35.6902C25.8304 35.6902 26.1704 35.5252 26.456 35.8827C26.2384 36.0752 25.844 36.419 25.6263 36.6115C25.3271 36.2677 25.5311 35.9515 25.5311 35.9515L25.2047 35.5802L24.2255 36.4602L23.9127 36.089L24.9055 35.2365L24.5519 34.824C24.5519 34.824 24.4159 34.9477 24.2255 35.1127C23.9399 34.7827 23.7223 34.3427 23.9263 33.7927C24.4975 33.6552 24.8919 33.944 25.1775 34.274C24.9871 34.4527 24.8511 34.5627 24.8511 34.5627L25.2183 34.989L26.0344 34.3015L25.5719 33.7515C25.9936 33.6965 26.3608 33.8477 26.5784 34.0952C26.7552 34.3427 26.864 34.7277 26.7552 35.1402Z" fill="white"/>
<path d="M29.4072 28.1826C29.4072 28.1826 29.3664 28.1826 29.2984 28.1826C29.176 28.8014 28.8904 29.2276 28.3872 29.2276C28.428 29.8326 28.8904 30.1489 29.3256 30.1489C29.3664 30.1489 29.3936 30.1351 29.4344 30.1351C29.4616 29.5164 29.4752 28.8701 29.4072 28.1826Z" fill="white"/>
<path d="M15.6303 28.1416C15.2631 28.1416 15.0183 28.1416 15.0183 28.1553C14.9231 29.2278 14.9639 30.2041 15.1135 31.0978C15.4943 30.4653 15.8751 29.8329 15.8479 29.3929C15.8343 28.9254 15.7255 28.5129 15.6303 28.1416Z" fill="white"/>
<path d="M15.8887 28.1416C15.9839 28.5129 16.0927 28.9254 16.1063 29.3791C16.1199 29.9016 15.7391 30.5479 15.3311 31.2354C15.2767 31.3179 15.2359 31.3866 15.1951 31.4691C16.3647 37.3266 21.9679 39.2791 21.9679 39.2791V28.1553C21.9815 28.1553 17.7655 28.1416 15.8887 28.1416ZM20.0911 35.0991C19.8191 35.1541 19.3703 35.1953 19.0711 35.1953C18.7719 35.1953 18.3367 35.1678 18.0511 35.0991C18.0783 34.9753 18.1191 34.8103 18.1599 34.6453C17.9559 34.6316 17.7383 34.5491 17.5615 34.4803C17.6431 34.1778 17.7791 33.8753 17.8879 33.4628C18.2687 33.5453 18.6359 33.5866 19.0575 33.5866C19.4791 33.5866 19.8463 33.5591 20.2271 33.4628C20.3359 33.8753 20.4719 34.1778 20.5671 34.4803C20.4039 34.5353 20.1863 34.6178 19.9687 34.6453C20.0231 34.8103 20.0639 34.9753 20.0911 35.0991ZM17.8063 32.6653C18.0103 32.5828 18.8399 32.5553 19.0847 32.5553C19.3295 32.5553 20.1455 32.5966 20.3631 32.6653C20.3903 32.7753 20.3903 32.9266 20.3767 33.0503C20.0639 33.1466 19.5063 33.1879 19.0983 33.1879C18.6767 33.1879 18.1327 33.1328 17.8199 33.0503C17.7791 32.9266 17.7791 32.7753 17.8063 32.6653ZM20.9207 30.4791C20.6079 31.2216 20.3087 32.0053 20.2135 32.2391C20.0503 32.2116 19.8735 32.1978 19.6967 32.1841C19.9007 31.5241 20.1591 30.5891 20.3767 29.9978C20.5127 29.5853 21.2063 29.7778 20.9207 30.4791ZM19.0847 29.3654C19.1391 29.0216 20.1047 28.9529 19.9279 29.7091C19.7511 30.4791 19.5199 31.3866 19.3431 32.1566C19.2615 32.1566 19.1799 32.1566 19.0983 32.1566C19.0167 32.1566 18.9351 32.1566 18.8535 32.1566C18.6767 31.3866 18.4455 30.4791 18.2687 29.7091C18.0647 28.9529 19.0303 29.0216 19.0847 29.3654ZM17.7927 29.9978C18.0103 30.5891 18.2551 31.5241 18.4727 32.1841C18.2959 32.1978 18.1191 32.2116 17.9559 32.2391C17.8607 32.0053 17.5615 31.2353 17.2487 30.4791C16.9495 29.7778 17.6431 29.5853 17.7927 29.9978Z" fill="white"/>
<path d="M29.6791 20.2354H22.2126H14.7461H14.4741V20.5242V25.9142C14.5421 25.9554 14.6101 26.0104 14.6781 26.0654V20.4692H29.8015V25.6667C29.8559 25.7217 29.9103 25.7904 29.9647 25.8867V20.5104V20.2217H29.6791V20.2354Z" fill="white"/>
<path d="M15.2361 25.3913C15.6305 25.7213 15.7801 25.9551 15.6577 27.0551C15.6441 27.1926 15.7121 27.4538 15.7937 27.7288H29.1082C29.1218 27.5776 29.1354 27.4401 29.1354 27.3163C29.149 26.7113 29.0402 26.2301 28.8498 26.0376C28.7818 25.9688 28.7138 25.9413 28.5914 25.9413H28.5642L28.0338 25.9963L28.3194 25.5426C28.5914 25.0888 28.9994 24.8276 29.421 24.8001V20.7988H15.0457V25.2676C15.1001 25.2951 15.1409 25.3226 15.1953 25.3638L15.2361 25.3913ZM23.6953 24.8688V24.5938L23.0425 24.5801C23.1921 23.8788 24.5385 22.9988 25.1505 22.7926C25.1233 22.0363 26.1026 21.7888 26.8914 21.7613C27.8706 21.7338 28.1018 22.8063 28.1018 23.1363C28.1018 23.5763 27.993 24.5526 27.449 24.8551C26.6602 25.2951 25.9802 24.6901 25.9802 24.1401C25.9802 23.5351 26.3882 23.1913 27.109 23.2738C27.8162 23.3563 27.7618 22.9438 27.2314 22.8063C26.973 22.7376 25.8442 22.6826 25.4633 23.5351C25.2457 23.5488 25.0145 23.4526 24.8785 23.3151C24.7289 23.5076 24.4977 23.6313 24.1849 23.7276C24.4569 24.2913 25.0145 24.1951 25.3545 23.9338C25.3409 24.0163 25.3409 24.0851 25.3409 24.1676C25.3409 25.5563 26.7962 25.9001 27.6938 25.3776C27.5442 25.8313 27.6122 26.3951 27.6802 26.7801H24.1441C24.1985 26.3951 24.6745 25.9551 25.0689 25.6801L24.7561 25.1851C24.3753 25.3501 24.0081 25.5151 23.6001 25.6251C22.6209 25.8588 22.6753 25.1438 23.6953 24.8688ZM21.2065 25.9963C21.0705 26.1888 20.2273 26.4501 20.0233 26.3263C19.6697 26.1063 19.4929 25.6526 19.5745 25.4463C19.6697 25.1851 20.5945 24.9238 20.8937 25.0201C21.1929 25.1163 21.3153 25.8176 21.2065 25.9963ZM16.2969 23.7826C17.0721 23.3288 17.4801 22.9988 17.8881 22.3526C17.5889 22.2013 17.2217 21.9263 16.9497 21.5413C18.4321 21.9676 19.1801 22.1876 20.9345 21.5551C20.6489 22.0088 20.2273 22.2838 19.8737 22.5176C20.2681 23.1776 20.6625 23.9338 20.7985 24.5388C20.2817 24.4976 19.6833 24.6213 19.2617 25.0201C18.6089 25.0476 17.7793 25.2538 17.3305 23.7551C17.0993 23.8788 16.8545 24.0301 16.8545 24.0301C17.1265 25.0063 17.6161 25.6801 18.9217 25.5288C18.9897 25.8451 19.0441 26.0238 19.2073 26.2851C18.6769 26.6013 17.3305 27.3988 16.3105 26.4776V23.7826H16.2969Z" fill="white"/>
<path d="M15.0457 25.584V27.7427H15.5212C15.4397 27.454 15.3718 27.2065 15.3989 27.0415C15.5077 25.9415 15.3446 25.8315 15.0457 25.584Z" fill="white"/>
<path d="M29.4065 27.7428V25.0615C29.094 25.089 28.7815 25.2815 28.5369 25.6803C28.564 25.6803 28.5912 25.6803 28.6184 25.6803C29.2027 25.6803 29.4065 26.4915 29.3929 27.3303C29.3929 27.4678 29.3793 27.6053 29.3793 27.7428H29.4065Z" fill="white"/>
<path d="M18.5407 24.0716C18.7855 24.1953 19.0983 24.0441 19.4111 24.0853C19.3431 23.9478 19.2751 23.8516 19.3159 23.6453C19.3975 23.2603 19.0847 23.1641 18.9487 23.1641C18.5815 23.1916 18.3911 23.2603 18.0103 23.1641C18.2551 23.4253 18.2007 23.8928 18.5407 24.0716Z" fill="white"/>
<path d="M242.997 31.1255V24.4842C242.997 23.4392 242.915 23.178 242.643 22.848C242.426 22.5867 242.018 22.4355 241.569 22.4355C240.794 22.4355 239.583 23.068 238.876 23.8105V31.1255H237.394V23.563C237.394 22.1605 237.027 21.4867 237.027 21.4867L238.509 21.0742C238.509 21.0742 238.863 21.803 238.863 22.6142C239.883 21.583 240.889 21.1017 241.923 21.1017C242.97 21.1017 243.908 21.6655 244.303 22.5455C244.466 22.903 244.534 23.3017 244.534 23.6867V31.1392H242.997V31.1255Z" fill="white"/>
<path d="M208.222 31.1255V24.4842C208.222 23.4392 208.14 23.178 207.868 22.848C207.65 22.5867 207.242 22.4355 206.794 22.4355C206.018 22.4355 204.808 23.068 204.101 23.8105V31.1255H202.618V23.563C202.618 22.1605 202.251 21.4867 202.251 21.4867L203.734 21.0742C203.734 21.0742 204.087 21.803 204.087 22.6142C205.107 21.583 206.114 21.1017 207.147 21.1017C208.208 21.1017 209.133 21.6655 209.527 22.5455C209.677 22.903 209.758 23.3017 209.758 23.6867V31.1392H208.222V31.1255Z" fill="white"/>
<path d="M182.517 31.2355H181.021L177.526 21.4042L179.09 21.0742L181.348 27.8392C181.62 28.6505 181.81 29.5167 181.81 29.5167H181.851C181.851 29.5167 182.014 28.7467 182.313 27.8667L184.544 21.3355H186.162L182.517 31.2355Z" fill="white"/>
<path d="M223.345 31.1255V23.8793C223.345 22.9305 222.923 22.4355 222.094 22.4355C221.223 22.4355 220.53 23.013 219.523 23.948V31.1255H217.987V24.1543C217.987 23.563 217.932 23.1643 217.715 22.8893C217.483 22.6143 217.171 22.4905 216.722 22.4905C215.974 22.4905 215.253 22.8618 214.246 23.7968V31.1255H212.778V23.5218C212.778 22.1055 212.424 21.4318 212.424 21.4318L213.906 21.0743C213.906 21.0743 214.26 21.8443 214.26 22.5318C214.899 21.803 216.096 21.0605 217.089 21.0605C218.041 21.0605 218.993 21.6518 219.347 22.6968C220.285 21.693 221.468 21.0605 222.461 21.0605C223.903 21.0605 224.895 22.1605 224.895 23.728V31.1393H223.345V31.1255Z" fill="white"/>
<path d="M229.098 26.4776V26.7114C229.098 27.6326 229.22 28.3476 229.546 28.8564C230.09 29.7089 230.988 30.0526 231.967 30.0526C232.906 30.0526 233.667 29.7501 234.347 29.1314L234.932 30.1214C234.075 30.9051 232.906 31.3451 231.655 31.3451C228.962 31.3451 227.343 29.3789 227.343 26.1201C227.343 24.4701 227.697 23.3976 228.513 22.4076C229.288 21.4864 230.254 21.0464 231.423 21.0464C232.471 21.0464 233.395 21.4176 234.048 22.1051C234.891 22.9714 235.163 23.8926 235.163 26.2439V26.4639H229.098V26.4776ZM233.096 23.1226C232.77 22.5864 232.09 22.2564 231.342 22.2564C229.954 22.2564 229.179 23.2739 229.098 25.3089H233.545C233.518 24.2501 233.382 23.6039 233.096 23.1226Z" fill="white"/>
<path d="M188.692 26.4776V26.7114C188.692 27.6326 188.814 28.3476 189.141 28.8564C189.685 29.7089 190.582 30.0526 191.562 30.0526C192.5 30.0526 193.262 29.7501 193.942 29.1314L194.526 30.1214C193.67 30.9051 192.5 31.3451 191.249 31.3451C188.556 31.3451 186.938 29.3789 186.938 26.1201C186.938 24.4701 187.291 23.3976 188.107 22.4076C188.882 21.4864 189.848 21.0464 191.018 21.0464C192.065 21.0464 192.99 21.4176 193.656 22.1051C194.499 22.9714 194.771 23.8926 194.771 26.2439V26.4639H188.692V26.4776ZM192.69 23.1226C192.364 22.5864 191.67 22.2564 190.936 22.2564C189.549 22.2564 188.774 23.2739 188.692 25.3089H193.139C193.112 24.2501 192.976 23.6039 192.69 23.1226Z" fill="white"/>
<path d="M201.122 22.7928C201.027 22.7515 200.85 22.7103 200.701 22.7103C200.116 22.7103 199.531 22.9715 199.082 23.4253C198.633 23.879 198.511 24.1678 198.511 24.979V31.1253H196.988V23.5628C196.988 22.119 196.661 21.4728 196.661 21.4728L198.185 21.0603C198.185 21.0603 198.552 21.8303 198.497 22.6553C199.205 21.6515 200.225 21.019 201.231 21.019C201.489 21.019 201.761 21.1153 201.761 21.1153L201.122 22.7928Z" fill="white"/>
<path d="M172.766 31.3865C170.101 31.3865 168.577 29.3928 168.577 26.1615C168.577 22.9715 170.155 21.019 172.712 21.019C174.33 21.019 175.391 21.7615 176.044 22.7378C176.642 23.6315 176.941 24.7865 176.941 26.3815C176.941 29.654 175.201 31.3865 172.766 31.3865ZM174.752 23.5353C174.344 22.669 173.487 22.2703 172.685 22.2703C171.828 22.2703 171.025 22.6828 170.699 23.329C170.386 23.934 170.237 24.7315 170.237 25.8865C170.237 27.2615 170.468 28.4853 170.849 29.104C171.202 29.6953 171.977 30.094 172.821 30.094C173.841 30.094 174.602 29.5578 174.929 28.609C175.146 28.004 175.228 27.454 175.228 26.4778C175.201 25.1165 175.065 24.1953 174.752 23.5353Z" fill="white"/>
<path d="M128.13 31.6479C127.532 31.3867 126.974 30.9329 126.73 30.4242C126.539 30.6167 126.322 30.8229 126.131 30.9604C125.642 31.3179 124.934 31.5104 124.118 31.5104C121.902 31.5104 120.691 30.3692 120.691 28.3617C120.691 25.9967 122.31 24.8967 125.492 24.8967C125.682 24.8967 125.859 24.8967 126.077 24.9104V24.4979C126.077 23.3704 125.859 22.9992 124.907 22.9992C124.064 22.9992 123.098 23.4117 122.024 24.1404L120.909 22.2429C121.439 21.9129 121.82 21.7067 122.527 21.4179C123.506 21.0054 124.336 20.8267 125.261 20.8267C126.934 20.8267 128.09 21.4592 128.484 22.5867C128.62 22.9992 128.674 23.3154 128.661 24.4017L128.606 27.7979C128.593 28.8979 128.661 29.3792 129.545 30.0392L128.13 31.6479ZM125.9 26.7117C124.091 26.7117 123.466 27.0417 123.466 28.2517C123.466 29.0354 123.955 29.5717 124.622 29.5717C125.111 29.5717 125.601 29.3104 125.982 28.8842L126.022 26.7117H125.9Z" fill="white"/>
<path d="M87.738 26.9042V26.9867C87.738 28.5404 88.4996 29.4342 89.846 29.4342C90.7436 29.4342 91.5868 29.1042 92.3756 28.4304L93.3957 30.0117C92.2396 30.9604 91.0428 31.4142 89.6284 31.4142C86.7588 31.4142 84.9092 29.3654 84.9092 26.1892C84.9092 24.3742 85.2764 23.1779 86.1604 22.1879C86.9764 21.2667 87.9692 20.8267 89.302 20.8267C90.458 20.8267 91.546 21.2254 92.1852 21.8854C93.0964 22.8342 93.5181 24.1954 93.5181 26.2992V26.9042H87.738ZM90.798 24.8554C90.798 24.1129 90.7164 23.7142 90.4852 23.3429C90.2268 22.9442 89.8596 22.7517 89.3292 22.7517C88.3364 22.7517 87.7652 23.5354 87.7652 24.9379V24.9792H90.7844V24.8554H90.798Z" fill="white"/>
<path d="M77.6467 26.9042V26.9867C77.6467 28.5404 78.4083 29.4342 79.7547 29.4342C80.6523 29.4342 81.4955 29.1042 82.2843 28.4304L83.3043 30.0117C82.1483 30.9604 80.9379 31.4142 79.5371 31.4142C76.6675 31.4142 74.8179 29.3654 74.8179 26.1892C74.8179 24.3742 75.1851 23.1779 76.0691 22.1879C76.8851 21.2667 77.8779 20.8267 79.2107 20.8267C80.3667 20.8267 81.4547 21.2254 82.0939 21.8854C83.0051 22.8342 83.4268 24.1954 83.4268 26.2992V26.9042H77.6467ZM80.7067 24.8554C80.7067 24.1129 80.6251 23.7142 80.3939 23.3429C80.1355 22.9442 79.7683 22.7517 79.2379 22.7517C78.2451 22.7517 77.6739 23.5354 77.6739 24.9379V24.9792H80.6931V24.8554H80.7067Z" fill="white"/>
<path d="M136.875 31.1252V24.5665C136.875 23.4252 136.671 23.0815 135.991 23.0815C135.461 23.0815 134.781 23.439 134.183 23.989V31.1252H131.571V23.8102C131.571 22.944 131.449 22.119 131.218 21.4452L133.543 20.7715C133.775 21.184 133.911 21.624 133.911 22.0365C134.305 21.7615 134.631 21.5277 135.067 21.294C135.597 21.019 136.277 20.854 136.862 20.854C137.977 20.854 138.943 21.4452 139.255 22.3115C139.391 22.6827 139.446 23.1227 139.446 23.7552V31.1252H136.875Z" fill="white"/>
<path d="M100.903 31.1252V24.5665C100.903 23.4252 100.713 23.0815 100.019 23.0815C99.4886 23.0815 98.8086 23.439 98.2102 23.989V31.1252H95.599V23.8102C95.599 22.944 95.4766 22.119 95.2454 21.4452L97.571 20.7715C97.8022 21.184 97.9382 21.624 97.9382 22.0365C98.3326 21.7615 98.659 21.5277 99.0942 21.294C99.6246 21.019 100.305 20.854 100.889 20.854C102.005 20.854 102.97 21.4452 103.283 22.3115C103.419 22.6827 103.473 23.1227 103.473 23.7552V31.1252H100.903Z" fill="white"/>
<path d="M71.1865 31.4002C70.8601 31.1665 70.5881 30.8365 70.4113 30.4102C69.7721 31.0427 68.8337 31.3727 67.7865 31.3727C66.3857 31.3727 65.1753 30.699 64.8353 29.7365C64.6857 29.2827 64.6177 28.7465 64.6177 27.729V21.2665L67.1881 20.7715V27.2615C67.1881 28.169 67.2697 28.6365 67.4057 28.9115C67.5417 29.1865 67.9361 29.379 68.3169 29.379C68.9561 29.379 69.7449 28.9115 69.9353 28.4165V21.3215L72.4377 20.7852V28.4852C72.4377 29.159 72.6553 29.8465 73.0361 30.314L71.1865 31.4002Z" fill="white"/>
<path d="M109.403 31.4416C108.179 31.4416 106.833 31.0428 105.364 30.2866L106.302 28.3616C107.105 28.8566 108.492 29.5028 109.621 29.5028C110.355 29.5028 110.94 29.0078 110.94 28.3616C110.94 27.6741 110.45 27.3166 109.403 27.1241L108.234 26.9041C107.567 26.7803 106.751 26.3128 106.398 25.8728C106.044 25.4466 105.826 24.7041 105.826 24.0578C105.826 22.0916 107.363 20.7578 109.689 20.7578C111.294 20.7578 112.341 21.2528 113.252 21.7066L112.395 23.4803C111.402 22.9716 110.682 22.7516 109.934 22.7516C109.172 22.7516 108.669 23.1503 108.669 23.7416C108.669 24.2503 108.995 24.5253 109.92 24.7591L111.13 25.0753C112.354 25.3916 112.762 25.7628 113.116 26.2166C113.483 26.6841 113.66 27.2616 113.66 27.9353C113.674 30.0253 111.96 31.4416 109.403 31.4416Z" fill="white"/>
<path d="M251.089 22.4764H249.063V28.8014C249.063 29.8877 249.348 30.2589 250.314 30.2589C250.736 30.2589 250.994 30.2039 251.266 30.0664L251.484 31.0564C250.994 31.3177 250.45 31.4552 249.77 31.4552C249.267 31.4552 248.872 31.3589 248.505 31.1802C247.825 30.8502 247.567 30.2177 247.567 29.2277V22.4902H246.302V21.3077H247.567C247.567 20.3589 247.716 18.8189 247.716 18.8189L249.321 18.4614C249.321 18.4614 249.131 20.0014 249.131 21.2939H251.565L251.089 22.4764Z" fill="white"/>
<path d="M162.675 31.3455C161.002 31.3455 159.574 30.7543 158.554 29.6543C157.425 28.4168 156.895 26.7393 156.895 24.4155C156.895 21.8305 157.575 20.0018 158.962 18.7368C159.914 17.8705 161.07 17.458 162.457 17.458C163.885 17.458 165.109 17.9118 166.116 18.7918L165.395 19.7955C164.307 19.053 163.518 18.7505 162.484 18.7505C160.92 18.7505 159.696 19.4793 159.152 21.033C158.799 22.0368 158.622 23.178 158.622 24.4705C158.622 26.2443 158.948 27.6743 159.56 28.568C160.172 29.4618 161.532 30.0118 162.797 30.0118C163.64 30.0118 164.361 29.833 164.919 29.4755V25.3505H162.226L161.913 24.0168H166.415V30.328C165.476 30.9468 164.035 31.3455 162.675 31.3455Z" fill="white"/>
<path d="M63.0405 33.449C63.0405 33.449 62.6461 33.6827 61.8301 33.6827C60.7829 33.6827 59.8445 33.0502 59.3413 32.7202C58.7021 32.294 57.6413 31.6752 56.5941 31.3452C54.5676 31.3452 53.2348 30.7815 52.2012 29.4202C51.1676 28.0727 50.6372 26.3402 50.6372 24.3327C50.6372 21.3765 51.7524 18.9977 53.6972 17.9252C54.4996 17.499 55.4925 17.2515 56.4989 17.2515C60.1029 17.2515 62.3333 19.919 62.3333 24.209C62.3333 27.179 61.2861 29.4065 59.6677 30.4927C60.0349 30.6302 60.5653 30.9877 60.8781 31.1802C61.3677 31.469 61.9525 31.744 62.5509 31.744C63.1357 31.744 63.7613 31.6477 63.7613 31.6477L63.0405 33.449ZM58.8517 21.1152C58.6341 20.4277 57.9133 19.3827 56.4717 19.3827C55.5605 19.3827 54.758 19.8502 54.3636 20.579C53.9012 21.459 53.6836 22.669 53.6836 24.319C53.6836 26.684 54.078 28.169 54.894 28.7602C55.3292 29.0765 55.8733 29.2277 56.5125 29.2277C58.4029 29.2277 59.2053 27.7702 59.2053 24.2777C59.2053 22.889 59.0829 21.8852 58.8517 21.1152Z" fill="white"/>
<path d="M148.422 31.1253C148.34 30.974 148.299 30.809 148.272 30.534C147.633 31.1115 146.871 31.3865 145.974 31.3865C143.444 31.3865 141.839 29.3928 141.839 26.2578C141.839 23.109 143.567 20.9365 146.11 20.9365C146.831 20.9365 147.402 21.1153 147.878 21.514C147.837 21.294 147.796 20.6065 147.796 20.0153V16.5503L150.394 16.9628V27.454C150.394 29.9428 150.584 30.7403 150.761 31.139H148.422V31.1253ZM147.837 23.7003C147.347 23.2603 146.885 23.054 146.409 23.054C145.239 23.054 144.736 24.044 144.736 26.2853C144.736 28.4578 145.185 29.159 146.545 29.159C147.035 29.159 147.579 28.8153 147.837 28.5128V23.7003Z" fill="white"/>
<path d="M118.311 31.3592C117.196 31.3592 116.298 30.8229 115.985 29.9842C115.795 29.4754 115.754 29.1592 115.754 27.7154V20.1804C115.754 18.8604 115.713 18.0492 115.618 17.1417L118.284 16.5229C118.379 17.0729 118.42 17.7192 118.42 19.1492V27.0142C118.42 28.7467 118.433 28.9805 118.597 29.2555C118.692 29.4342 118.909 29.5304 119.127 29.5304C119.222 29.5304 119.29 29.5305 119.413 29.4892L119.861 31.0705C119.413 31.2629 118.869 31.3592 118.311 31.3592Z" fill="white"/>
<path d="M24.2663 17.0178C24.1711 17.0178 24.0759 17.059 24.0215 17.1415C23.9127 17.1278 23.8039 17.1003 23.6815 17.0865V16.4678C23.7903 16.4265 23.8719 16.3165 23.8719 16.179C23.8719 16.014 23.7359 15.8628 23.5727 15.8628C23.4095 15.8628 23.2735 16.0003 23.2735 16.179C23.2735 16.289 23.3415 16.399 23.4367 16.454V17.0453C23.3279 17.0315 23.2327 17.0178 23.1103 17.0178C23.0695 16.9078 22.9607 16.839 22.8383 16.839C22.6751 16.839 22.5391 16.9765 22.5391 17.1415C22.5391 17.3065 22.6751 17.444 22.8383 17.444C22.9471 17.444 23.0423 17.389 23.0967 17.3065C23.2191 17.3203 23.3279 17.334 23.4367 17.3478L23.4231 18.2415C23.3279 18.2965 23.2599 18.3928 23.2599 18.5165C23.2599 18.6815 23.3959 18.8328 23.5591 18.8328C23.7223 18.8328 23.8719 18.6953 23.8719 18.5165C23.8719 18.3928 23.7903 18.2828 23.6951 18.2415L23.7087 17.3753C23.8039 17.389 23.8991 17.4028 23.9943 17.4165C24.0351 17.5403 24.1439 17.6228 24.2799 17.6228C24.4431 17.6228 24.5791 17.4853 24.5791 17.3203C24.5655 17.1553 24.4295 17.0178 24.2663 17.0178Z" fill="white"/>
<path d="M21.6143 16.839C21.4919 16.839 21.3831 16.9078 21.3287 17.0178C21.2199 17.0315 21.1111 17.0315 21.0023 17.0453V16.454C21.0975 16.399 21.1655 16.3028 21.1655 16.179C21.1655 16.014 21.0295 15.8628 20.8663 15.8628C20.6895 15.8628 20.5535 16.0003 20.5535 16.179C20.5535 16.3028 20.6351 16.4128 20.7303 16.4678L20.7439 17.0865C20.6351 17.1003 20.5127 17.114 20.4039 17.1415C20.3495 17.0728 20.2679 17.0178 20.1591 17.0178C19.9959 17.0178 19.8599 17.1553 19.8599 17.334C19.8599 17.499 19.9959 17.6365 20.1591 17.6365C20.2951 17.6365 20.4039 17.554 20.4447 17.4303C20.5399 17.4165 20.6351 17.4028 20.7303 17.389L20.7439 18.2553C20.6351 18.2965 20.5671 18.4065 20.5671 18.5303C20.5671 18.6953 20.7031 18.8465 20.8663 18.8465C21.0295 18.8465 21.1791 18.709 21.1791 18.5303C21.1791 18.4065 21.1111 18.3103 21.0159 18.2553V17.3615C21.1247 17.3478 21.2335 17.334 21.3559 17.3203C21.4103 17.4028 21.5055 17.4578 21.6143 17.4578C21.7775 17.4578 21.9271 17.3203 21.9271 17.1553C21.9271 16.9765 21.7775 16.839 21.6143 16.839Z" fill="white"/>
<path d="M31.937 10.4727C31.937 8.54768 31.869 6.96643 31.8418 6.47143C31.9098 6.48518 31.9914 6.51268 32.073 6.54018C33.433 7.02143 33.7458 8.68518 36.5746 6.80143C35.065 6.98018 34.9834 5.68768 34.2898 5.66018C35.337 5.05518 35.405 3.68018 35.405 3.68018C34.5346 4.39518 32.4946 4.43643 32.1002 4.67018C31.5698 4.98643 30.917 5.38518 30.4682 5.63268C29.2986 6.27893 30.1146 9.79893 29.9922 11.0777C29.353 9.16643 28.0746 9.45518 27.4082 8.35518C26.905 9.27643 27.4354 10.8027 27.6394 11.2427C26.905 11.8477 27.109 12.9477 27.2858 13.2502C27.9114 12.7964 28.877 12.9064 29.1626 13.6764C28.3466 14.1852 26.973 14.2677 26.0345 13.3602L25.7081 13.7314C26.3745 14.6114 28.0202 14.9552 29.2578 14.2402C29.2578 14.4464 29.2034 14.6664 29.1218 14.9139C28.4826 15.2577 27.653 15.4364 26.7146 15.1064C26.837 16.0689 27.9386 16.7839 28.9858 17.0864C28.6322 17.3614 28.197 17.4714 27.8842 17.4302C28.0882 17.9939 28.197 18.7364 27.7754 19.3277C27.2586 18.9839 26.973 18.6264 26.7826 17.2789C26.5786 15.9177 25.6129 14.5427 24.8649 14.2677C24.8241 14.7489 24.8241 14.5427 24.9057 14.8452C26.8914 16.3164 25.7761 18.9839 27.8434 19.9464C28.605 19.0664 28.6186 18.7639 28.4962 17.9389C29.2442 17.7327 29.8018 17.1002 30.0058 16.6052C29.2986 16.9489 28.1698 16.3439 27.857 15.8764C29.0946 15.8352 30.237 14.9002 31.4066 13.6627C32.4538 12.5627 33.841 12.7277 33.7322 13.5939C34.453 13.4839 34.7386 12.4939 34.5074 11.8477C35.5682 11.5039 36.3978 10.7202 36.5066 9.48268C35.0786 10.1977 33.2834 9.01518 31.937 10.4727ZM33.637 11.5039C34.1946 11.9714 34.0178 12.6314 33.8818 12.7827C33.3922 11.9302 31.8146 12.2189 30.2642 13.9927C30.1554 14.1302 30.0058 14.2814 29.8426 14.4327C29.965 12.3152 28.2514 12.2739 27.7482 12.4939C27.8026 11.8889 28.1834 11.4627 28.3738 11.4077C27.8706 10.8164 27.7618 10.0739 27.7074 9.52393C28.5506 9.89518 29.7882 10.8852 29.9922 12.5902L30.5362 12.2189C30.373 9.23518 30.4138 9.24893 30.3866 7.22768C30.3866 6.93893 30.4002 6.27893 31.2842 6.34768C31.325 7.10393 31.4338 9.09768 31.393 11.8752H31.7058C31.9914 11.1052 33.0114 10.1839 34.1946 10.2664C34.997 10.3214 35.2826 10.3077 35.745 10.1014C35.3778 11.0364 34.0042 11.4489 33.637 11.5039ZM31.325 5.82518C31.8962 5.41268 32.2634 5.22018 32.5626 5.04143C33.0522 5.05518 33.909 5.00018 34.4122 4.73893C33.8818 5.39893 33.8274 5.63268 32.957 5.72893C34.0858 5.82518 34.5618 6.84268 35.1058 7.00768C33.229 7.59893 33.0386 5.71518 31.325 5.82518Z" fill="white"/>
<path d="M19.5063 15.2027C18.4591 15.2577 17.4391 16.6327 17.8607 18.2002C17.6975 18.2552 17.2487 18.2552 17.0991 17.939C16.9903 18.4477 15.9567 19.039 15.2087 18.9565C15.6167 18.5027 15.9023 17.4852 16.7047 16.949C17.5207 16.4127 17.8743 16.0415 18.1599 15.1202C17.7791 15.299 15.8343 15.8077 15.2767 15.2027C16.5687 15.0102 18.0783 14.2815 18.8263 13.8002L18.5271 13.484C17.7247 13.9515 16.6503 14.3227 16.1063 14.5015C15.9159 12.879 17.4391 12.9477 17.5615 13.3877C18.1871 12.6315 17.7519 11.5452 17.2895 11.4215C17.7655 10.129 17.2895 9.33148 16.8815 8.85023C16.7863 10.2252 15.2631 10.4452 15.0863 11.504C15.0319 10.6652 14.9775 8.39648 14.9095 7.29648C14.8143 5.23398 12.2439 4.50523 11.8494 4.50523C10.1766 4.58773 10.027 4.36773 10.0678 3.58398C9.21103 4.56023 9.49663 5.42648 10.2174 5.85273C10.1222 6.44398 9.19743 6.89773 8.62622 7.02148C9.98623 8.30023 11.5638 7.54398 12.3255 6.81523C12.3799 6.76023 12.4207 6.71898 12.4751 6.66398C12.7471 7.14523 12.9511 8.03898 12.9511 8.54773C11.6726 8.47898 11.455 9.46898 11.455 9.84023C13.0735 9.16648 13.2503 12.3015 13.6719 12.7965C13.2639 12.769 12.5295 11.7927 11.455 11.724C10.1494 11.6552 9.70063 12.3565 9.17023 12.329C9.26543 13.2502 10.3806 13.7727 11.1014 13.8827C10.7342 14.8315 11.0606 15.4777 11.8222 15.7115C11.8222 14.8452 12.9103 14.5702 14.0663 15.2577C15.4671 16.0827 16.1743 16.1515 17.3031 15.8077C17.1127 16.2202 16.6095 16.2615 15.9975 16.8802C15.1271 17.7465 15.0999 18.874 14.1343 19.2865C15.2767 19.8365 16.9903 19.0665 17.2351 18.6265C17.7111 18.929 18.3231 18.7502 18.4863 18.4477C17.7111 16.7152 19.0167 15.6977 19.5335 15.7115C19.5335 15.6977 19.7647 15.189 19.5063 15.2027ZM13.5903 14.5015C13.0191 14.2677 12.1351 14.1165 11.6454 14.8177C11.3734 14.3365 11.7678 13.6352 12.0127 13.4152C10.7614 13.4427 10.0542 13.0577 9.86383 12.6727C10.3262 12.4115 11.4958 11.9852 12.4615 12.7002C13.1279 13.1952 13.4543 13.429 14.2431 13.6902C14.5287 13.4015 14.4199 13.539 14.5151 13.4565C13.8759 13.0027 13.5903 9.55148 12.3255 9.42773C12.5023 8.98773 13.1551 9.02898 13.6855 9.16648C13.7263 8.39648 13.4135 7.11773 12.9375 6.37523C13.6719 5.99023 14.1751 6.40273 14.4199 7.32398C14.6919 8.30023 14.3655 10.734 15.0047 12.934L15.3991 12.5627C15.1951 11.284 16.5959 10.8165 16.8951 10.1702C17.0175 11.0227 16.8407 11.4215 16.5959 11.724C17.0991 11.779 17.3303 12.2877 17.2487 12.6315C16.0383 12.4527 15.3311 13.6765 15.6031 14.6527C14.6919 14.859 14.0799 14.7077 13.5903 14.5015ZM10.1494 4.89023C11.1014 5.35773 11.4142 4.49148 13.1959 5.66023C12.0127 6.03148 11.1014 7.51648 9.76863 7.13148C10.7206 6.65023 10.6254 5.94898 11.183 5.59148C10.8294 5.55023 10.1358 5.38523 10.1494 4.89023Z" fill="white"/>
<path d="M25.6672 19.493C25.4768 18.2555 25.0416 14.763 24.9872 13.608L24.4568 13.6355C24.4568 13.828 24.484 14.0892 24.5112 14.4055C23.8856 14.213 23.056 14.0892 22.2128 14.0892C21.3696 14.0892 20.5399 14.2267 19.9143 14.4055C19.9415 14.103 19.9687 13.8417 19.9687 13.6355L19.4519 13.5942C19.3975 14.763 18.9623 18.2417 18.7719 19.4792C18.4591 19.603 18.2551 19.9192 18.2551 20.483C18.2551 20.483 21.1112 20.5242 22.2264 20.5242C23.3416 20.5242 26.1976 20.483 26.1976 20.483C26.184 19.9192 25.98 19.6167 25.6672 19.493ZM22.2128 19.4517C21.764 20.3317 20.9208 20.3042 20.1727 19.8092C19.8735 19.6167 19.5743 19.4792 19.2887 19.438C19.4111 18.5717 19.6287 16.9492 19.7783 15.5742C20.7303 15.1342 21.9136 15.038 22.1992 16.1517C22.4848 15.038 23.668 15.148 24.62 15.5742C24.7696 16.9492 24.9872 18.5855 25.1096 19.438C24.8376 19.4792 24.5248 19.6167 24.2256 19.8092C23.5184 20.3042 22.6752 20.3317 22.2128 19.4517Z" fill="white"/>
<path d="M28.1426 5.93531C28.1562 5.66031 27.653 5.45406 27.517 5.44031C27.2994 5.42656 27.041 5.88031 26.7554 6.15531C26.5106 4.83531 26.633 4.25781 26.769 3.66656C27.3266 4.68406 28.0746 4.90406 28.469 4.84906C27.1362 3.77656 27.3674 2.80031 26.9594 2.74531C26.7282 2.71781 26.565 2.73156 26.4426 2.73156C25.9802 2.73156 25.9122 3.65281 25.8442 4.06531C25.545 3.50156 25.2458 3.02031 24.729 2.36031C24.2394 1.08156 23.641 1.39781 23.029 0.820313C23.505 1.54906 23.1242 2.00281 24.2258 2.52531C24.5114 2.80031 24.8514 3.24031 25.069 3.58406C24.8786 3.83156 24.7562 3.96906 24.5794 4.14781C24.4434 4.35406 24.3754 5.15156 23.9538 5.74281C24.5794 5.46781 24.8378 5.06906 25.0554 4.69781C27.0546 6.22406 25.4362 10.1016 24.9738 10.9541C24.5386 10.6516 23.9674 10.4866 23.4642 10.3903L23.4098 10.2116L22.9474 8.68531H23.165C23.4098 8.68531 23.4778 8.52031 23.437 8.38281L24.8106 8.80906L25.4226 9.00156L25.0554 8.47906L24.4162 7.58531L25.0554 6.69156L25.4226 6.16906L24.8106 6.36156L23.573 6.74656C23.4914 6.45781 23.2602 6.32031 23.0018 6.29281L23.4234 4.87656L23.6002 4.27156L23.097 4.64281L22.213 5.28906L21.329 4.64281L20.8258 4.27156L21.0026 4.87656L21.4242 6.29281C21.1794 6.33406 20.9346 6.47156 20.853 6.74656L19.6154 6.36156L19.0033 6.16906L19.3705 6.69156L20.0098 7.58531L19.3705 8.47906L19.0033 9.00156L19.6154 8.80906L21.0026 8.38281C20.9618 8.52031 21.0162 8.68531 21.261 8.68531H21.4786L21.0162 10.2116L20.9482 10.4041C20.4178 10.5003 19.8466 10.6791 19.4113 10.9816C18.0649 8.35531 18.4457 5.68781 19.5746 4.80781C19.561 5.37156 20.037 6.12781 20.2682 6.27906C20.1186 5.70156 20.377 4.67031 20.0778 4.40906C19.8738 4.23031 19.561 4.14781 19.2209 4.14781C19.4521 3.76281 19.765 3.28156 20.2954 2.58031C21.0842 2.22281 21.3154 1.28781 21.5058 0.820312C20.649 1.13656 20.0098 1.59031 19.8738 2.31906C19.5746 2.73156 19.2345 3.21281 18.8537 3.77656C18.8809 3.08906 18.5001 2.85531 18.0105 2.81406C16.5689 3.11656 16.6641 4.17531 15.4265 4.90406C16.2697 5.20656 17.6025 3.32281 18.0649 3.52906C18.1329 4.68406 17.8745 5.59156 17.8745 6.22406C17.6569 5.97656 17.5481 5.81156 17.3577 5.78406C17.1809 5.75656 16.6913 5.79781 16.3649 6.16906C16.2697 6.76031 16.2969 7.86031 15.7529 9.16656C16.5553 8.42406 16.9497 6.95281 17.0721 6.52656C17.2761 6.81531 17.5073 7.44781 17.5617 7.99781C17.6569 9.04281 18.2961 10.8028 18.8401 11.6416C18.6905 11.9303 18.6497 12.2603 18.7041 12.6316C18.2825 12.9478 18.2281 13.3878 18.3777 13.6903C18.5409 14.0066 18.9489 14.2266 19.4385 14.0341L19.5882 13.9653C20.105 13.7453 21.057 13.3466 22.213 13.3466C23.369 13.3466 24.3346 13.7453 24.8378 13.9653L24.9874 14.0341C25.477 14.2266 25.885 14.0066 26.0482 13.6903C26.1978 13.3878 26.1434 12.9478 25.7218 12.6316C25.7762 12.2466 25.7218 11.8891 25.545 11.5728L25.5586 11.5866C26.5514 10.1566 26.6194 7.43406 27.4354 6.66406C27.5034 7.61281 28.0066 8.41031 28.4962 8.52031C28.1154 7.84656 28.1154 6.54031 28.1426 5.93531ZM23.6138 7.21406L24.3482 6.98031L23.9946 7.47531L23.8994 7.59906L23.9946 7.72281L24.3482 8.21781L23.4234 7.92906C23.4914 7.73656 23.5594 7.53031 23.6138 7.21406ZM20.105 8.23156L20.4586 7.73656L20.5538 7.61281L20.4586 7.48906L20.105 6.99406L20.8394 7.22781C20.8802 7.54406 20.9482 7.76406 21.0298 7.95656L20.105 8.23156ZM23.0018 7.98406H22.4306L22.4986 6.95281C23.3554 6.55406 23.2874 7.36531 23.0018 7.98406ZM22.8386 9.74406L22.349 9.38656L22.2266 9.29031L22.1042 9.38656L21.6146 9.74406L21.9274 8.69906H22.5258L22.8386 9.74406ZM22.0906 5.74281L22.213 5.83906L22.3354 5.74281L22.8386 5.37156L22.553 6.34781C22.5394 6.34781 22.5258 6.34781 22.5258 6.36156C22.4714 6.23781 22.349 6.15531 22.213 6.15531C22.077 6.15531 21.9546 6.23781 21.9002 6.36156C21.8866 6.36156 21.8866 6.36156 21.873 6.34781L21.5874 5.37156L22.0906 5.74281ZM21.4378 7.98406C21.1522 7.36531 21.0842 6.55406 21.941 6.95281L22.009 7.98406H21.4378ZM22.213 9.82656L22.9066 10.3353C22.6074 10.3078 22.3626 10.3078 22.213 10.3078C22.0634 10.3078 21.8186 10.3078 21.5194 10.3353L22.213 9.82656ZM19.3841 13.4566L19.2345 13.5116C19.0305 13.5941 18.8945 13.5253 18.8401 13.4291C18.7857 13.3191 18.8265 13.1403 19.0713 12.9891C19.0985 12.9753 19.1393 12.9478 19.1801 12.9341L19.6698 13.3328C19.561 13.3878 19.4657 13.4291 19.3841 13.4566ZM21.0434 12.9203L20.5402 12.4253C20.9618 12.3153 21.397 12.2466 21.8186 12.2191L22.1178 12.8103C21.737 12.8103 21.3698 12.8653 21.0434 12.9203ZM23.845 13.0303L23.5458 12.3428C23.9946 12.4253 24.4298 12.5628 24.8106 12.7278L24.9874 13.4428C24.7018 13.3191 24.321 13.1541 23.845 13.0303ZM22.213 11.6691C21.261 11.6691 20.173 11.9028 19.3433 12.2603C19.3569 12.0678 19.4249 11.9166 19.5337 11.7653C20.0098 11.1741 21.2746 10.9678 22.1994 10.9678C23.1242 10.9678 24.389 11.1741 24.865 11.7653C24.9874 11.9028 25.0418 12.0678 25.0554 12.2603C24.253 11.8891 23.1922 11.6691 22.213 11.6691Z" fill="white"/>
<path d="M15.4127 27.0002C15.5351 25.8864 15.3583 25.7902 15.0455 25.5289C14.7735 25.2952 14.3111 25.2264 13.8623 24.9102C13.5359 24.6764 13.4407 24.3602 13.0327 23.9202C13.1143 22.9852 13.7807 21.8302 14.2703 21.5689C14.3383 21.5277 14.3247 20.0702 14.3247 20.0702C14.3247 20.0702 14.6511 20.0564 14.6239 20.0427C14.1887 19.7677 13.6583 19.9739 13.2775 20.4277C12.9103 20.7302 12.0534 21.3077 11.4686 21.5139C10.6798 20.8402 9.44223 20.2352 8.53102 19.3277C8.53102 19.3277 9.72783 19.3139 10.2854 19.0939C10.435 18.9977 10.8158 18.3927 10.6526 17.8014C10.4622 17.7327 10.2038 17.5952 9.93183 17.4439C9.60543 17.2514 9.29262 17.0589 9.14302 16.9352C8.62622 16.5364 8.40862 16.1927 7.51101 15.9589C7.56541 15.5464 7.66061 15.6427 8.05501 15.3677C8.55822 15.0239 8.84382 14.6114 9.04782 14.1989C9.19742 13.8827 9.02062 13.2227 8.62622 14.0614C8.49022 14.3502 8.09581 14.7489 7.64701 14.8727C7.68781 14.6114 7.70141 14.4602 7.70141 14.3227C9.02062 13.3877 8.88462 12.5627 8.78942 11.7789C8.70782 11.3252 8.27262 11.1327 8.28622 11.6002C8.29982 11.9164 8.57182 12.7964 7.67421 13.3052C7.64701 12.9202 7.55181 12.7414 7.47021 12.5489C8.27262 11.4764 7.93261 10.4452 7.59261 9.97769C7.37501 9.67519 6.8582 9.57894 7.0894 10.0464C7.29341 10.4314 7.60621 11.4902 7.0078 11.9164C6.8038 11.6689 6.5726 11.5589 6.491 11.2152C6.5454 10.0602 6.4774 9.34519 6.3278 8.93269C6.1918 8.54769 5.82459 8.30019 5.85179 8.87769C5.87899 9.52394 5.93339 10.3352 5.87899 10.3764C5.82459 10.4314 4.98139 9.63394 4.64138 9.40019C4.28778 9.15269 3.87978 9.24894 4.27418 9.73019C4.64138 10.1427 5.71579 10.9539 5.57979 11.2152C5.49819 11.3802 4.72298 10.7339 4.31498 10.5964C3.90698 10.4589 3.78457 10.6789 4.12458 10.9539C4.68218 11.4077 5.04939 11.7102 5.96059 12.0264C6.8718 12.3289 7.32061 13.6077 7.035 15.4227C7.0214 15.5052 6.8718 15.4914 6.7766 15.4639C6.7358 14.7764 6.6134 13.9377 6.4502 13.5802C6.2326 13.0852 5.81099 13.0852 5.96059 13.7314C6.083 14.2402 6.151 14.8039 6.0694 15.4914C5.32139 15.3677 5.03579 15.1614 4.72298 14.9689C4.69578 14.6114 4.87258 14.0339 4.89978 13.5252C4.92698 13.0164 4.62778 12.7002 4.46458 13.3327C4.30138 13.9514 4.19258 14.2402 4.09738 14.6802C3.87978 14.6114 3.64857 14.5152 3.55337 14.3914C3.49897 14.3364 3.55337 13.6489 3.49897 13.1402C3.44457 12.5764 3.22697 12.5902 3.06377 13.0852C2.98217 13.3189 2.92777 13.6214 2.90057 13.9789C2.64216 13.8277 2.46536 13.5252 2.43816 13.2639C2.47896 12.6727 2.57416 12.0539 2.64216 11.6552C2.69656 11.3802 2.50616 10.8027 2.28856 11.4902C2.12536 11.9989 2.08456 12.4114 1.98936 12.7552C1.79896 12.7414 1.55415 11.6277 1.41815 10.8989C1.36375 10.5827 1.09175 10.2114 1.03735 10.9264C0.982949 11.7377 1.14615 12.5489 1.35015 12.9064C0.969349 12.8652 0.602146 12.1639 0.330143 11.7514C0.0989412 11.3939 -0.0234599 11.7652 0.00374036 11.9164C0.234942 13.3464 1.36375 13.8552 1.86696 13.9514C2.65576 15.0927 4.16538 15.5877 5.44379 16.1514C3.78457 16.1377 3.34937 16.8114 2.58776 16.3714C2.61496 17.0039 2.92777 17.2927 3.22697 17.4439C3.44457 17.5402 3.64857 17.5677 3.74377 17.5952C3.87978 18.3652 4.60058 18.3239 5.21259 18.3652C5.04939 19.8639 5.23979 21.8439 6.5318 23.3152C6.491 24.0714 6.4366 25.0752 6.4502 25.7352C5.40299 26.7114 4.45098 28.8014 4.08378 29.9564C3.79817 30.8227 3.37657 31.4964 2.72376 31.8127C3.25417 32.3764 4.04298 32.1014 4.50538 31.7852C4.53258 32.2939 4.65498 32.6514 4.73658 32.9539C4.43738 33.4077 4.21978 33.7239 4.24698 34.2877C3.90698 34.3839 3.66217 34.6039 3.48537 34.8377C3.36297 34.9889 3.49897 35.6764 3.63497 35.9652C4.05658 36.9277 3.73017 39.1002 3.64857 39.7327C3.82537 39.7464 4.15178 39.7464 4.21978 39.4852C4.32858 39.5814 4.58698 39.7739 4.70938 40.1864C4.68218 40.3652 4.57338 41.0389 4.91338 41.1214C5.18539 41.1902 6.3822 41.1489 6.5454 40.9427C6.423 40.8052 6.219 40.4752 6.0966 40.1589C6.0966 39.8289 6.0694 39.4302 5.97419 39.2652C5.83819 39.0177 5.49819 38.4677 5.26699 38.2477C5.22619 37.8489 5.18539 36.0752 5.36219 35.4014C5.67499 35.1814 7.76941 33.6139 8.20461 32.1014C8.58542 32.2389 8.47662 33.2839 8.47662 34.6452C8.47662 35.0164 8.91182 35.1952 9.18382 35.2364C9.75503 35.3052 10.5574 35.8552 11.4686 37.2164C11.6454 37.0239 11.8766 36.8452 11.8766 36.8452C11.999 37.0102 12.135 37.3952 12.2167 37.6427C12.3119 37.8352 13.0463 37.9452 13.6039 37.7664C13.7943 37.6977 13.9031 37.6702 14.0255 37.4639C13.3183 36.2127 12.8831 35.3739 11.9718 34.6864C11.5502 34.3702 10.979 34.2052 10.503 33.9027C10.8158 33.2977 11.6862 30.4927 11.1694 29.4614C10.9926 29.1177 10.3262 28.7877 9.52383 28.9389C10.1902 28.1277 11.5638 26.5052 11.7406 26.0102C11.9038 26.2027 12.7063 26.0652 13.3047 26.3127C13.5223 26.4089 14.1343 27.2064 14.1615 27.4814C14.2159 27.9764 14.2431 28.5677 13.9031 29.9289C14.1479 29.8877 14.1071 29.8739 14.3383 29.7777C14.3791 30.1352 14.2703 30.4239 13.9575 30.9739C14.0391 31.4689 14.2567 32.2252 14.4879 32.3627C14.7871 31.4414 15.9159 30.1489 15.8887 29.3789C15.8343 28.3339 15.3583 27.4539 15.4127 27.0002Z" fill="white"/>
</svg>
